<svg xmlns="http://www.w3.org/2000/svg" xmlns:svg="http://www.w3.org/2000/svg" xmlns:xlink="http://www.w3.org/1999/xlink" id="svg11300" width="128" height="128" version="1.0" viewBox="0 0 128 128" style="display:inline;enable-background:new"><title id="title4162">Adwaita Icon Template</title><defs id="defs3"><linearGradient id="linearGradient1076"><stop style="stop-color:#d5d3cf;stop-opacity:1" id="stop1064" offset="0"/><stop id="stop1066" offset=".036" style="stop-color:#e4e1de;stop-opacity:1"/><stop style="stop-color:#d5d3cf;stop-opacity:1" id="stop1068" offset=".071"/><stop id="stop1070" offset=".929" style="stop-color:#d5d3cf;stop-opacity:1"/><stop style="stop-color:#e4e1de;stop-opacity:1" id="stop1072" offset=".964"/><stop style="stop-color:#d5d3cf;stop-opacity:1" id="stop1074" offset="1"/></linearGradient><linearGradient id="linearGradient1444-2-3-2" x1="120" x2="568" y1="619.964" y2="619.964" gradientTransform="matrix(0.25,0,0,0.25,-22,109.00903)" gradientUnits="userSpaceOnUse" xlink:href="#linearGradient1076"/><linearGradient id="linearGradient1106-8" x1="335.868" x2="112.132" y1="33.559" y2="33.559" gradientTransform="matrix(0.25,0,0,0.25,-12,225)" gradientUnits="userSpaceOnUse" xlink:href="#linearGradient985"/><linearGradient id="linearGradient985"><stop id="stop981" offset="0" style="stop-color:#f9f06b;stop-opacity:1"/><stop id="stop983" offset="1" style="stop-color:#f9f06b;stop-opacity:0"/></linearGradient><radialGradient id="radialGradient1030" cx="64.846" cy="194.19" r="44" fx="64.846" fy="194.19" gradientTransform="matrix(-4.7272726,1.1058296e-6,-3.0301491e-7,-1.2272727,250.54547,-21.6754)" gradientUnits="userSpaceOnUse" xlink:href="#linearGradient1020"/><linearGradient id="linearGradient1020"><stop style="stop-color:#fff;stop-opacity:1" id="stop1016" offset="0"/><stop style="stop-color:#fff;stop-opacity:.09411765" id="stop1018" offset="1"/></linearGradient><linearGradient id="linearGradient1444-2-3-3" x1="120" x2="568" y1="619.964" y2="619.964" gradientTransform="matrix(0.25,0,0,0.25,-22.00001,-50.99097)" gradientUnits="userSpaceOnUse" xlink:href="#linearGradient1076"/><radialGradient id="radialGradient1030-8" cx="64" cy="194.19" r="44" fx="64" fy="194.19" gradientTransform="matrix(-4.1363634,1.2532736e-6,-2.6513804e-7,-1.3909091,319.22728,170.63455)" gradientUnits="userSpaceOnUse" xlink:href="#linearGradient1020"/><linearGradient id="linearGradient1106-2" x1="301" x2="104" y1="33.559" y2="33.559" gradientTransform="matrix(0.25,0,0,0.25,-2.00001,61)" gradientUnits="userSpaceOnUse" xlink:href="#linearGradient985"/></defs><metadata id="metadata4"/><rect style="display:inline;opacity:1;vector-effect:none;fill:#f6f5f4;fill-opacity:1;stroke:none;stroke-width:.01129821px;stroke-linecap:butt;stroke-linejoin:miter;stroke-miterlimit:4;stroke-dasharray:none;stroke-dashoffset:0;stroke-opacity:1;marker:none;marker-start:none;marker-mid:none;marker-end:none;paint-order:normal;enable-background:new" id="rect929-36-9-9" width="112" height="86" x="8" y="28" rx="8" ry="8"/><rect style="display:inline;opacity:1;vector-effect:none;fill:#241f31;fill-opacity:1;stroke:none;stroke-width:.01129821px;stroke-linecap:butt;stroke-linejoin:miter;stroke-miterlimit:4;stroke-dasharray:none;stroke-dashoffset:0;stroke-opacity:1;marker:none;marker-start:none;marker-mid:none;marker-end:none;paint-order:normal;enable-background:new" id="rect946-0-7-4" width="92" height="76" x="12" y="32" rx="4" ry="4"/><path style="display:inline;opacity:1;vector-effect:none;fill:url(#linearGradient1444-2-3-3);fill-opacity:1;stroke:none;stroke-width:.01129821px;stroke-linecap:butt;stroke-linejoin:miter;stroke-miterlimit:4;stroke-dasharray:none;stroke-dashoffset:0;stroke-opacity:1;marker:none;marker-start:none;marker-mid:none;marker-end:none;paint-order:normal;enable-background:new" id="rect929-3-6-3-9" d="m 7.99999,104 v 4 c 0,4.432 3.568,8 8,8 h 96 c 4.432,0 8,-3.568 8,-8 v -4 c 0,4.432 -3.568,8 -8,8 h -96 c -4.432,0 -8,-3.568 -8,-8 z"/><rect id="rect968-2" width="84" height="68" x="16" y="-104" transform="scale(1,-1)" style="display:inline;opacity:.05;vector-effect:none;fill:url(#radialGradient1030-8);fill-opacity:1;stroke:none;stroke-width:.01121096px;stroke-linecap:butt;stroke-linejoin:miter;stroke-miterlimit:4;stroke-dasharray:none;stroke-dashoffset:0;stroke-opacity:1;marker:none;marker-start:none;marker-mid:none;marker-end:none;paint-order:normal;enable-background:new"/><path id="path1092-6-1-3-7-5-5" d="m 15.99999,74 h 26 l 10,-23 6,39 8,-16 h 34" style="display:inline;opacity:.23600003;fill:none;stroke:#e5a50a;stroke-width:4;stroke-linecap:butt;stroke-linejoin:miter;stroke-miterlimit:10;stroke-dasharray:none;stroke-opacity:1;enable-background:new"/><path id="path1092-6-1-3-7-5-1-0" d="m 15.99999,74 h 26 l 10,-23 6,39 8,-16 h 6" style="display:inline;opacity:1;fill:none;stroke:url(#linearGradient1106-2);stroke-width:4;stroke-linecap:round;stroke-linejoin:miter;stroke-miterlimit:10;stroke-dasharray:none;stroke-opacity:1;enable-background:new"/><g id="g1063" transform="translate(0,-170)"><path style="display:inline;opacity:1;vector-effect:none;fill:#949390;fill-opacity:1;stroke:none;stroke-width:3.99999952;stroke-linecap:round;stroke-linejoin:miter;stroke-miterlimit:4;stroke-dasharray:none;stroke-dashoffset:0;stroke-opacity:1;marker:none;marker-start:none;marker-mid:none;marker-end:none;paint-order:normal;enable-background:new" id="path1066" d="m 115.99999,232 v 4 c 0,2.20914 -1.79086,4 -4,4 -2.20914,0 -4,-1.79086 -4,-4 v -2 l 4,-2 z"/><path id="path1074" d="m 115.99999,248 v 6 h -4 c -2.216,0 -4,-1.784 -4,-4 v -2 z" style="display:inline;opacity:1;vector-effect:none;fill:#949390;fill-opacity:1;stroke:none;stroke-width:4;stroke-linecap:round;stroke-linejoin:miter;stroke-miterlimit:4;stroke-dasharray:none;stroke-dashoffset:0;stroke-opacity:1;marker:none;marker-start:none;marker-mid:none;marker-end:none;paint-order:normal;enable-background:new"/><path id="path1076" d="m 115.99999,252 v -4 a 4,3.9999998 0 0 0 -4,-4 4,3.9999998 0 0 0 -4,4 4,3.9999998 0 0 0 4,4 z" style="display:inline;opacity:1;vector-effect:none;fill:#d5d3cf;fill-opacity:1;stroke:none;stroke-width:3.99999952;stroke-linecap:round;stroke-linejoin:miter;stroke-miterlimit:4;stroke-dasharray:none;stroke-dashoffset:0;stroke-opacity:1;marker:none;marker-start:none;marker-mid:none;marker-end:none;paint-order:normal;enable-background:new"/><ellipse id="ellipse1078" cx="-114" cy="250" rx="1" ry="1" transform="scale(-1,1)" style="display:inline;opacity:1;vector-effect:none;fill:#68676b;fill-opacity:1;stroke:none;stroke-width:3.99999952;stroke-linecap:round;stroke-linejoin:miter;stroke-miterlimit:4;stroke-dasharray:none;stroke-dashoffset:0;stroke-opacity:1;marker:none;marker-start:none;marker-mid:none;marker-end:none;paint-order:normal;enable-background:new"/><path style="display:inline;opacity:1;vector-effect:none;fill:#d5d3cf;fill-opacity:1;stroke:none;stroke-width:3.99999952;stroke-linecap:round;stroke-linejoin:miter;stroke-miterlimit:4;stroke-dasharray:none;stroke-dashoffset:0;stroke-opacity:1;marker:none;marker-start:none;marker-mid:none;marker-end:none;paint-order:normal;enable-background:new" id="path1080" d="m 115.99999,230 v 4 a 4,3.9999998 0 0 1 -4,4 4,3.9999998 0 0 1 -4,-4 4,3.9999998 0 0 1 4,-4 z"/><ellipse style="display:inline;opacity:1;vector-effect:none;fill:#68676b;fill-opacity:1;stroke:none;stroke-width:3.99999952;stroke-linecap:round;stroke-linejoin:miter;stroke-miterlimit:4;stroke-dasharray:none;stroke-dashoffset:0;stroke-opacity:1;marker:none;marker-start:none;marker-mid:none;marker-end:none;paint-order:normal;enable-background:new" id="ellipse1082" cx="-114" cy="-232" rx="1" ry="1" transform="scale(-1)"/><path id="path1084" d="m 107.99999,218 v 4 c 0,2.20914 1.79086,4 4,4 2.20914,0 4,-1.79086 4,-4 v -2 l -4,-2 z" style="display:inline;opacity:1;vector-effect:none;fill:#949390;fill-opacity:1;stroke:none;stroke-width:3.99999952;stroke-linecap:round;stroke-linejoin:miter;stroke-miterlimit:4;stroke-dasharray:none;stroke-dashoffset:0;stroke-opacity:1;marker:none;marker-start:none;marker-mid:none;marker-end:none;paint-order:normal;enable-background:new"/><path id="path1086" d="m 107.99999,216 v 4 a 4,3.9999998 0 0 0 4,4 4,3.9999998 0 0 0 4,-4 4,3.9999998 0 0 0 -4,-4 z" style="display:inline;opacity:1;vector-effect:none;fill:#d5d3cf;fill-opacity:1;stroke:none;stroke-width:3.99999952;stroke-linecap:round;stroke-linejoin:miter;stroke-miterlimit:4;stroke-dasharray:none;stroke-dashoffset:0;stroke-opacity:1;marker:none;marker-start:none;marker-mid:none;marker-end:none;paint-order:normal;enable-background:new"/><ellipse id="ellipse1088" cx="110" cy="-218" rx="1" ry="1" transform="scale(1,-1)" style="display:inline;opacity:1;vector-effect:none;fill:#68676b;fill-opacity:1;stroke:none;stroke-width:3.99999952;stroke-linecap:round;stroke-linejoin:miter;stroke-miterlimit:4;stroke-dasharray:none;stroke-dashoffset:0;stroke-opacity:1;marker:none;marker-start:none;marker-mid:none;marker-end:none;paint-order:normal;enable-background:new"/><path style="display:inline;opacity:1;vector-effect:none;fill:#949390;fill-opacity:1;stroke:none;stroke-width:4;stroke-linecap:round;stroke-linejoin:miter;stroke-miterlimit:4;stroke-dasharray:none;stroke-dashoffset:0;stroke-opacity:1;marker:none;marker-start:none;marker-mid:none;marker-end:none;paint-order:normal;enable-background:new" id="path1090" d="m 115.99999,206 v 6 h -4 c -2.216,0 -4,-1.784 -4,-4 v -2 z"/><path style="display:inline;opacity:1;vector-effect:none;fill:#d5d3cf;fill-opacity:1;stroke:none;stroke-width:3.99999952;stroke-linecap:round;stroke-linejoin:miter;stroke-miterlimit:4;stroke-dasharray:none;stroke-dashoffset:0;stroke-opacity:1;marker:none;marker-start:none;marker-mid:none;marker-end:none;paint-order:normal;enable-background:new" id="path1092" d="m 115.99999,210 v -4 a 4,3.9999998 0 0 0 -4,-4 4,3.9999998 0 0 0 -4,4 4,3.9999998 0 0 0 4,4 z"/><ellipse style="display:inline;opacity:1;vector-effect:none;fill:#68676b;fill-opacity:1;stroke:none;stroke-width:3.99999952;stroke-linecap:round;stroke-linejoin:miter;stroke-miterlimit:4;stroke-dasharray:none;stroke-dashoffset:0;stroke-opacity:1;marker:none;marker-start:none;marker-mid:none;marker-end:none;paint-order:normal;enable-background:new" id="ellipse1094" cx="-114" cy="208" rx="1" ry="1" transform="scale(-1,1)"/></g></svg>