<svg xmlns="http://www.w3.org/2000/svg" xmlns:cc="http://web.resource.org/cc/" xmlns:svg="http://www.w3.org/2000/svg" xmlns:xlink="http://www.w3.org/1999/xlink" id="svg11300" width="32" height="32" version="1.0"><defs id="defs3"><linearGradient id="linearGradient2304"><stop id="stop2306" offset="0" style="stop-color:#73d216"/><stop id="stop2308" offset="1" style="stop-color:#4e9a06"/></linearGradient><linearGradient id="linearGradient1442"><stop id="stop1444" offset="0" style="stop-color:#73d216"/><stop id="stop1446" offset="1" style="stop-color:#4e9a06"/></linearGradient><linearGradient id="linearGradient8662"><stop id="stop8664" offset="0" style="stop-color:#000;stop-opacity:1"/><stop id="stop8666" offset="1" style="stop-color:#000;stop-opacity:0"/></linearGradient><linearGradient id="linearGradient8650"><stop id="stop8652" offset="0" style="stop-color:#fff;stop-opacity:1"/><stop id="stop8654" offset="1" style="stop-color:#fff;stop-opacity:0"/></linearGradient><radialGradient id="radialGradient1444" cx="24.837" cy="36.421" r="15.645" fx="24.837" fy="36.421" gradientTransform="matrix(0.9574038,0,0,0.2519481,-7.8008277,17.882096)" gradientUnits="userSpaceOnUse" xlink:href="#linearGradient8662"/><radialGradient id="radialGradient2916" cx="24.538" cy=".4" r="17.171" fx="24.538" fy=".4" gradientTransform="matrix(0,-1.639511,1.2477073,0,-0.7887167,50.520377)" gradientUnits="userSpaceOnUse" xlink:href="#linearGradient8650"/></defs><metadata id="metadata4"/><g id="layer1"><path style="opacity:.20454544;color:#000;fill:url(#radialGradient1444);fill-opacity:1;fill-rule:evenodd;stroke:none;stroke-width:1;stroke-linecap:butt;stroke-linejoin:miter;marker:none;marker-start:none;marker-mid:none;marker-end:none;stroke-miterlimit:10;stroke-dasharray:none;stroke-dashoffset:0;stroke-opacity:1;visibility:visible;display:inline;overflow:visible" id="path8660" d="M 8 23.71875 C 3.8007462 24.417285 1 25.659396 1 27.0625 C 1 29.238298 7.7007116 31 15.96875 31 C 24.236789 31 30.968751 29.238298 30.96875 27.0625 C 30.96875 25.669209 28.181501 24.45105 24.03125 23.75 L 24.0625 27.5625 C 24.062472 27.838631 23.838631 28.062472 23.5625 28.0625 L 8.5 28.03125 C 8.2238691 28.031222 8.0000277 27.807381 8 27.53125 L 8 23.71875 z"/><path style="opacity:.48128339;color:#000;fill:none;fill-opacity:1;fill-rule:evenodd;stroke:#fff;stroke-width:1.00000036;stroke-linecap:butt;stroke-linejoin:miter;marker:none;marker-start:none;marker-mid:none;marker-end:none;stroke-miterlimit:10;stroke-dasharray:none;stroke-dashoffset:0;stroke-opacity:1;visibility:visible;display:inline;overflow:visible" id="path8658" d="M 22.569585,26.572772 L 9.5024221,26.553215 L 9.4797859,16.536803 L 4.6265001,16.524485 L 16.008001,2.8113028 L 27.397918,16.550556 L 22.52643,16.554693 L 22.569585,26.572772 z"/><path id="path2878" d="M 3.5238289,17.001913 L 9.007046,16.956641 L 9.0603961,22.21291 C 13.590765,13.401105 21.871498,15.128187 22.353124,9.6945344 C 22.353124,9.6945344 15.984277,2.1846647 15.984277,2.1846647 L 3.5238289,17.001913 z" style="opacity:.5080214;color:#000;fill:url(#radialGradient2916);fill-opacity:1;fill-rule:evenodd;stroke:none;stroke-width:1;stroke-linecap:round;stroke-linejoin:round;marker:none;marker-start:none;marker-mid:none;marker-end:none;stroke-miterlimit:10;stroke-dasharray:none;stroke-dashoffset:0;stroke-opacity:1;visibility:visible;display:inline;overflow:visible"/></g></svg>